<svg width="237" height="14" viewBox="0 0 237 14" fill="none" xmlns="http://www.w3.org/2000/svg">
<path d="M5.782 10.3612C4.86733 10.3612 4.02267 10.1372 3.248 9.68919C2.48267 9.23186 1.87133 8.62052 1.414 7.85519C0.966 7.08052 0.742 6.23586 0.742 5.32119C0.742 4.40652 0.966 3.56652 1.414 2.80119C1.87133 2.02652 2.48267 1.41519 3.248 0.96719C4.02267 0.509856 4.86733 0.28119 5.782 0.28119C6.69667 0.28119 7.53667 0.509856 8.302 0.96719C9.07667 1.41519 9.688 2.02652 10.136 2.80119C10.5933 3.56652 10.822 4.40652 10.822 5.32119C10.822 6.23586 10.5933 7.08052 10.136 7.85519C9.688 8.62052 9.07667 9.23186 8.302 9.68919C7.53667 10.1372 6.69667 10.3612 5.782 10.3612ZM5.782 9.47919C6.52867 9.47919 7.21467 9.29252 7.84 8.91919C8.46533 8.53652 8.96 8.02786 9.324 7.39319C9.69733 6.75852 9.884 6.06786 9.884 5.32119C9.884 4.57452 9.69733 3.88386 9.324 3.24919C8.96 2.60519 8.46067 2.09652 7.826 1.72319C7.20067 1.34052 6.51933 1.14919 5.782 1.14919C5.04467 1.14919 4.35867 1.34052 3.724 1.72319C3.09867 2.09652 2.604 2.60519 2.24 3.24919C1.876 3.88386 1.694 4.57452 1.694 5.32119C1.694 6.06786 1.876 6.75852 2.24 7.39319C2.604 8.02786 3.09867 8.53652 3.724 8.91919C4.35867 9.29252 5.04467 9.47919 5.782 9.47919ZM5.782 8.00919C5.09133 8.00919 4.54067 7.79919 4.13 7.37919C3.71933 6.95919 3.50467 6.43186 3.486 5.79719L3.472 5.30719L3.486 4.81719C3.50467 4.18252 3.71933 3.65519 4.13 3.23519C4.54067 2.81519 5.09133 2.60519 5.782 2.60519C6.26733 2.60519 6.678 2.68452 7.014 2.84319C7.35933 3.00186 7.616 3.20252 7.784 3.44519C7.96134 3.67852 8.05467 3.91652 8.064 4.15919C8.064 4.25252 8.036 4.32719 7.98 4.38319C7.924 4.43919 7.84933 4.46719 7.756 4.46719H7.308C7.21467 4.46719 7.14467 4.44386 7.098 4.39719C7.05133 4.35052 7.00933 4.28519 6.972 4.20119C6.888 3.98652 6.75267 3.82319 6.566 3.71119C6.37933 3.59919 6.118 3.54319 5.782 3.54319C5.334 3.54319 5.01667 3.66919 4.83 3.92119C4.65267 4.17319 4.55467 4.47652 4.536 4.83119L4.522 5.30719L4.536 5.78319C4.55467 6.13786 4.65267 6.44119 4.83 6.69319C5.01667 6.94519 5.334 7.07119 5.782 7.07119C6.118 7.07119 6.37933 7.01519 6.566 6.90319C6.75267 6.79119 6.888 6.62786 6.972 6.41319C7.00933 6.32919 7.05133 6.26386 7.098 6.21719C7.14467 6.17052 7.21467 6.14719 7.308 6.14719H7.756C7.84933 6.14719 7.924 6.17519 7.98 6.23119C8.036 6.28719 8.064 6.36186 8.064 6.45519C8.05467 6.69786 7.96134 6.94052 7.784 7.18319C7.616 7.41652 7.35933 7.61252 7.014 7.77119C6.678 7.92986 6.26733 8.00919 5.782 8.00919ZM16.006 10.2212C15.9127 10.2212 15.8334 10.1932 15.768 10.1372C15.712 10.0719 15.684 9.99252 15.684 9.89919V9.45119C15.684 9.23652 15.8007 9.03119 16.034 8.83519L19.002 5.86719C19.7207 5.26986 20.2154 4.78452 20.486 4.41119C20.7567 4.02852 20.8921 3.62719 20.8921 3.20719C20.8921 2.66586 20.738 2.24119 20.43 1.93319C20.1314 1.62519 19.6927 1.47119 19.114 1.47119C18.5727 1.47119 18.1387 1.63452 17.812 1.96119C17.4854 2.27852 17.2847 2.70319 17.21 3.23519C17.1914 3.34719 17.1447 3.43119 17.07 3.48719C17.0047 3.53386 16.93 3.55719 16.846 3.55719H16.118C16.034 3.55719 15.964 3.53386 15.908 3.48719C15.852 3.43119 15.824 3.36586 15.824 3.29119C15.8427 2.78719 15.978 2.30652 16.23 1.84919C16.482 1.38252 16.8507 1.00452 17.336 0.71519C17.8307 0.416523 18.4234 0.26719 19.114 0.26719C20.1687 0.26719 20.962 0.542523 21.494 1.09319C22.0354 1.63452 22.306 2.32519 22.306 3.16519C22.306 3.75319 22.1567 4.28519 21.858 4.76119C21.5687 5.22786 21.116 5.73186 20.5 6.27319L17.812 9.00319H22.18C22.2827 9.00319 22.3621 9.03586 22.4181 9.10119C22.4834 9.15719 22.516 9.23186 22.516 9.32519V9.89919C22.516 9.99252 22.4834 10.0719 22.4181 10.1372C22.3527 10.1932 22.2734 10.2212 22.18 10.2212H16.006ZM27.6528 10.3612C26.4488 10.3612 25.5668 10.0112 25.0068 9.31119C24.4468 8.61119 24.1482 7.69186 24.1108 6.55319C24.1015 6.30119 24.0968 5.89519 24.0968 5.33519C24.0968 4.75652 24.1015 4.33652 24.1108 4.07519C24.1388 2.95519 24.4375 2.04519 25.0068 1.34519C25.5762 0.635856 26.4582 0.28119 27.6528 0.28119C28.8568 0.28119 29.7435 0.635856 30.3128 1.34519C30.8822 2.04519 31.1808 2.95519 31.2088 4.07519C31.2275 4.59786 31.2368 5.01786 31.2368 5.33519C31.2368 5.64319 31.2275 6.04919 31.2088 6.55319C31.1715 7.69186 30.8728 8.61119 30.3128 9.31119C29.7528 10.0112 28.8662 10.3612 27.6528 10.3612ZM27.6528 9.15719C28.3528 9.15719 28.8802 8.92386 29.2348 8.45719C29.5988 7.99052 29.7902 7.33252 29.8088 6.48319C29.8275 5.94186 29.8368 5.54986 29.8368 5.30719C29.8368 5.04586 29.8275 4.66319 29.8088 4.15919C29.7902 3.31919 29.6035 2.66119 29.2488 2.18519C28.8942 1.70919 28.3622 1.47119 27.6528 1.47119C26.9528 1.47119 26.4208 1.70919 26.0568 2.18519C25.7022 2.66119 25.5155 3.31919 25.4968 4.15919L25.4828 5.30719L25.4968 6.48319C25.5155 7.33252 25.7022 7.99052 26.0568 8.45719C26.4208 8.92386 26.9528 9.15719 27.6528 9.15719ZM33.1096 10.2212C33.0162 10.2212 32.9369 10.1932 32.8716 10.1372C32.8156 10.0719 32.7876 9.99252 32.7876 9.89919V9.45119C32.7876 9.23652 32.9042 9.03119 33.1376 8.83519L36.1056 5.86719C36.8242 5.26986 37.3189 4.78452 37.5896 4.41119C37.8602 4.02852 37.9956 3.62719 37.9956 3.20719C37.9956 2.66586 37.8416 2.24119 37.5336 1.93319C37.2349 1.62519 36.7962 1.47119 36.2176 1.47119C35.6762 1.47119 35.2422 1.63452 34.9156 1.96119C34.5889 2.27852 34.3882 2.70319 34.3136 3.23519C34.2949 3.34719 34.2482 3.43119 34.1736 3.48719C34.1082 3.53386 34.0336 3.55719 33.9496 3.55719H33.2216C33.1376 3.55719 33.0676 3.53386 33.0116 3.48719C32.9556 3.43119 32.9276 3.36586 32.9276 3.29119C32.9462 2.78719 33.0816 2.30652 33.3336 1.84919C33.5856 1.38252 33.9542 1.00452 34.4396 0.71519C34.9342 0.416523 35.5269 0.26719 36.2176 0.26719C37.2722 0.26719 38.0656 0.542523 38.5976 1.09319C39.1389 1.63452 39.4096 2.32519 39.4096 3.16519C39.4096 3.75319 39.2602 4.28519 38.9616 4.76119C38.6722 5.22786 38.2196 5.73186 37.6036 6.27319L34.9156 9.00319H39.2836C39.3862 9.00319 39.4656 9.03586 39.5216 9.10119C39.5869 9.15719 39.6196 9.23186 39.6196 9.32519V9.89919C39.6196 9.99252 39.5869 10.0719 39.5216 10.1372C39.4562 10.1932 39.3769 10.2212 39.2836 10.2212H33.1096ZM44.1824 10.2212C44.089 10.2212 44.0097 10.1932 43.9444 10.1372C43.8884 10.0719 43.8604 9.99252 43.8604 9.89919V2.05919L41.5364 3.85119C41.471 3.90719 41.401 3.93519 41.3264 3.93519C41.2424 3.93519 41.163 3.88852 41.0884 3.79519L40.7244 3.33319C40.6777 3.26786 40.6544 3.20252 40.6544 3.13719C40.6544 3.02519 40.701 2.93652 40.7944 2.87119L43.8464 0.51919C43.949 0.453856 44.0704 0.421189 44.2104 0.421189H44.9244C45.0177 0.421189 45.0924 0.453856 45.1484 0.51919C45.2137 0.57519 45.2464 0.649856 45.2464 0.743189V9.89919C45.2464 9.99252 45.2137 10.0719 45.1484 10.1372C45.0924 10.1932 45.0177 10.2212 44.9244 10.2212H44.1824ZM51.2783 10.2212C51.185 10.2212 51.1056 10.1932 51.0403 10.1372C50.9843 10.0719 50.9563 9.99252 50.9563 9.89919V0.757189C50.9563 0.654523 50.9843 0.57519 51.0403 0.51919C51.1056 0.453856 51.185 0.421189 51.2783 0.421189H56.9903C57.093 0.421189 57.1723 0.453856 57.2283 0.51919C57.2936 0.57519 57.3263 0.654523 57.3263 0.757189V1.31719C57.3263 1.41052 57.2936 1.48986 57.2283 1.55519C57.1723 1.61119 57.093 1.63919 56.9903 1.63919H52.3143V4.90119H56.7103C56.813 4.90119 56.8923 4.93386 56.9483 4.99919C57.0136 5.05519 57.0463 5.13452 57.0463 5.23719V5.79719C57.0463 5.89052 57.0136 5.96986 56.9483 6.03519C56.883 6.09119 56.8036 6.11919 56.7103 6.11919H52.3143V9.89919C52.3143 9.99252 52.2816 10.0719 52.2163 10.1372C52.151 10.1932 52.0716 10.2212 51.9783 10.2212H51.2783ZM61.5157 10.3612C60.629 10.3612 59.943 10.0765 59.4577 9.50719C58.9723 8.92852 58.7297 8.16319 58.7297 7.21119V3.26319C58.7297 3.16986 58.7577 3.09519 58.8137 3.03919C58.879 2.97386 58.9583 2.94119 59.0517 2.94119H59.7517C59.845 2.94119 59.9197 2.97386 59.9757 3.03919C60.041 3.09519 60.0737 3.16986 60.0737 3.26319V7.14119C60.0737 8.53186 60.6803 9.22719 61.8937 9.22719C62.4817 9.22719 62.9483 9.04519 63.2937 8.68119C63.639 8.30786 63.8117 7.79452 63.8117 7.14119V3.26319C63.8117 3.16986 63.8397 3.09519 63.8957 3.03919C63.961 2.97386 64.0403 2.94119 64.1337 2.94119H64.8337C64.927 2.94119 65.0017 2.97386 65.0577 3.03919C65.1137 3.09519 65.1417 3.16986 65.1417 3.26319V9.89919C65.1417 9.99252 65.1137 10.0719 65.0577 10.1372C65.0017 10.1932 64.927 10.2212 64.8337 10.2212H64.1757C64.0823 10.2212 64.003 10.1932 63.9377 10.1372C63.8817 10.0719 63.8537 9.99252 63.8537 9.89919V9.28319C63.5923 9.63786 63.275 9.90852 62.9017 10.0952C62.5283 10.2725 62.0663 10.3612 61.5157 10.3612ZM67.5436 10.2212C67.4502 10.2212 67.3709 10.1932 67.3056 10.1372C67.2496 10.0719 67.2216 9.99252 67.2216 9.89919V3.26319C67.2216 3.16986 67.2496 3.09519 67.3056 3.03919C67.3709 2.97386 67.4502 2.94119 67.5436 2.94119H68.2016C68.2949 2.94119 68.3696 2.97386 68.4256 3.03919C68.4909 3.09519 68.5236 3.16986 68.5236 3.26319V3.87919C68.7942 3.53386 69.1116 3.26786 69.4756 3.08119C69.8489 2.89452 70.3109 2.80119 70.8616 2.80119C71.7576 2.80119 72.4529 3.09052 72.9476 3.66919C73.4516 4.23852 73.7036 4.99919 73.7036 5.95119V9.89919C73.7036 9.99252 73.6709 10.0719 73.6056 10.1372C73.5496 10.1932 73.4749 10.2212 73.3816 10.2212H72.6816C72.5882 10.2212 72.5089 10.1932 72.4436 10.1372C72.3876 10.0719 72.3596 9.99252 72.3596 9.89919V6.02119C72.3596 5.35852 72.1962 4.84519 71.8696 4.48119C71.5522 4.11719 71.0902 3.93519 70.4836 3.93519C69.8956 3.93519 69.4289 4.12186 69.0836 4.49519C68.7382 4.85919 68.5656 5.36786 68.5656 6.02119V9.89919C68.5656 9.99252 68.5329 10.0719 68.4676 10.1372C68.4116 10.1932 68.3369 10.2212 68.2436 10.2212H67.5436ZM76.0478 10.2212C75.9545 10.2212 75.8751 10.1932 75.8098 10.1372C75.7538 10.0719 75.7258 9.99252 75.7258 9.89919V0.60319C75.7258 0.509856 75.7538 0.43519 75.8098 0.37919C75.8751 0.313856 75.9545 0.28119 76.0478 0.28119H76.7058C76.7991 0.28119 76.8738 0.313856 76.9298 0.37919C76.9951 0.43519 77.0278 0.509856 77.0278 0.60319V5.47519L79.7858 3.17919C79.8138 3.16052 79.8605 3.12319 79.9258 3.06719C79.9911 3.02052 80.0518 2.98786 80.1078 2.96919C80.1731 2.95052 80.2525 2.94119 80.3458 2.94119H81.0878C81.1718 2.94119 81.2418 2.96919 81.2978 3.02519C81.3538 3.08119 81.3818 3.15119 81.3818 3.23519C81.3818 3.33786 81.3258 3.42652 81.2138 3.50119L77.9798 6.18919L81.5638 9.67519C81.6758 9.76852 81.7318 9.85252 81.7318 9.92719C81.7318 10.0112 81.7038 10.0812 81.6478 10.1372C81.5918 10.1932 81.5218 10.2212 81.4378 10.2212H80.7098C80.5698 10.2212 80.4671 10.2072 80.4018 10.1792C80.3458 10.1512 80.2618 10.0859 80.1498 9.98319L77.0278 7.00119V9.89919C77.0278 9.99252 76.9951 10.0719 76.9298 10.1372C76.8738 10.1932 76.7991 10.2212 76.7058 10.2212H76.0478ZM83.1405 1.58319C83.0472 1.58319 82.9679 1.55519 82.9025 1.49919C82.8465 1.43386 82.8185 1.35452 82.8185 1.26119V0.50519C82.8185 0.411856 82.8465 0.332523 82.9025 0.26719C82.9679 0.201856 83.0472 0.169189 83.1405 0.169189H84.0225C84.1159 0.169189 84.1952 0.201856 84.2605 0.26719C84.3259 0.332523 84.3585 0.411856 84.3585 0.50519V1.26119C84.3585 1.35452 84.3259 1.43386 84.2605 1.49919C84.1952 1.55519 84.1159 1.58319 84.0225 1.58319H83.1405ZM83.2525 10.2212C83.1592 10.2212 83.0799 10.1932 83.0145 10.1372C82.9585 10.0719 82.9305 9.99252 82.9305 9.89919V3.26319C82.9305 3.16986 82.9585 3.09519 83.0145 3.03919C83.0799 2.97386 83.1592 2.94119 83.2525 2.94119H83.9245C84.0179 2.94119 84.0925 2.97386 84.1485 3.03919C84.2139 3.09519 84.2465 3.16986 84.2465 3.26319V9.89919C84.2465 9.99252 84.2139 10.0719 84.1485 10.1372C84.0925 10.1932 84.0179 10.2212 83.9245 10.2212H83.2525ZM86.6432 10.2212C86.5498 10.2212 86.4705 10.1932 86.4052 10.1372C86.3492 10.0719 86.3212 9.99252 86.3212 9.89919V3.26319C86.3212 3.16986 86.3492 3.09519 86.4052 3.03919C86.4705 2.97386 86.5498 2.94119 86.6432 2.94119H87.3012C87.3945 2.94119 87.4692 2.97386 87.5252 3.03919C87.5905 3.09519 87.6232 3.16986 87.6232 3.26319V3.87919C87.8938 3.53386 88.2112 3.26786 88.5752 3.08119C88.9485 2.89452 89.4105 2.80119 89.9612 2.80119C90.8572 2.80119 91.5525 3.09052 92.0472 3.66919C92.5512 4.23852 92.8032 4.99919 92.8032 5.95119V9.89919C92.8032 9.99252 92.7705 10.0719 92.7052 10.1372C92.6492 10.1932 92.5745 10.2212 92.4812 10.2212H91.7812C91.6878 10.2212 91.6085 10.1932 91.5432 10.1372C91.4872 10.0719 91.4592 9.99252 91.4592 9.89919V6.02119C91.4592 5.35852 91.2958 4.84519 90.9692 4.48119C90.6518 4.11719 90.1898 3.93519 89.5832 3.93519C88.9952 3.93519 88.5285 4.12186 88.1832 4.49519C87.8378 4.85919 87.6652 5.36786 87.6652 6.02119V9.89919C87.6652 9.99252 87.6325 10.0719 87.5672 10.1372C87.5112 10.1932 87.4365 10.2212 87.3432 10.2212H86.6432ZM97.7934 13.3012C97.0281 13.3012 96.4121 13.1705 95.9454 12.9092C95.4787 12.6572 95.1474 12.3679 94.9514 12.0412C94.7554 11.7145 94.6481 11.4205 94.6294 11.1592C94.6201 11.0659 94.6481 10.9865 94.7134 10.9212C94.7881 10.8559 94.8674 10.8232 94.9514 10.8232H95.6234C95.7074 10.8232 95.7774 10.8419 95.8334 10.8792C95.8894 10.9259 95.9361 11.0052 95.9734 11.1172C96.0854 11.4159 96.2674 11.6725 96.5194 11.8872C96.7807 12.1112 97.1821 12.2232 97.7234 12.2232C98.4141 12.2232 98.9227 12.0739 99.2494 11.7752C99.5761 11.4859 99.7394 10.9679 99.7394 10.2212V9.26919C99.4967 9.57719 99.1887 9.82452 98.8154 10.0112C98.4421 10.1885 97.9987 10.2772 97.4854 10.2772C96.4961 10.2772 95.7541 9.96452 95.2594 9.33919C94.7741 8.70452 94.5174 7.90186 94.4894 6.93119L94.4754 6.53919L94.4894 6.16119C94.5174 5.19986 94.7787 4.40186 95.2734 3.76719C95.7681 3.12319 96.5054 2.80119 97.4854 2.80119C98.4654 2.80119 99.2307 3.16052 99.7814 3.87919V3.27719C99.7814 3.18386 99.8094 3.10452 99.8654 3.03919C99.9307 2.97386 100.01 2.94119 100.103 2.94119H100.747C100.841 2.94119 100.92 2.97386 100.985 3.03919C101.051 3.10452 101.083 3.18386 101.083 3.27719V10.0672C101.083 12.2232 99.9867 13.3012 97.7934 13.3012ZM97.7654 9.15719C98.4001 9.15719 98.8807 8.94719 99.2074 8.52719C99.5341 8.10719 99.7114 7.60786 99.7394 7.02919C99.7487 6.94519 99.7534 6.78186 99.7534 6.53919C99.7534 6.30586 99.7487 6.14719 99.7394 6.06319C99.7114 5.48452 99.5341 4.98519 99.2074 4.56519C98.8901 4.14519 98.4094 3.93519 97.7654 3.93519C97.1027 3.93519 96.6221 4.14052 96.3234 4.55119C96.0247 4.96186 95.8614 5.50319 95.8334 6.17519L95.8194 6.53919L95.8334 6.91719C95.8614 7.57986 96.0247 8.12119 96.3234 8.54119C96.6221 8.95186 97.1027 9.15719 97.7654 9.15719ZM106.849 6.60919C106.755 6.60919 106.676 6.58119 106.611 6.52519C106.555 6.45986 106.527 6.38052 106.527 6.28719V5.75519C106.527 5.66186 106.555 5.58719 106.611 5.53119C106.676 5.46586 106.755 5.43319 106.849 5.43319H111.049C111.142 5.43319 111.217 5.46586 111.273 5.53119C111.338 5.58719 111.371 5.66186 111.371 5.75519V6.28719C111.371 6.38052 111.338 6.45986 111.273 6.52519C111.217 6.58119 111.142 6.60919 111.049 6.60919H106.849ZM115.964 10.2212C115.89 10.2212 115.824 10.1932 115.768 10.1372C115.712 10.0812 115.684 10.0159 115.684 9.94119C115.684 9.86652 115.689 9.81519 115.698 9.78719L119.17 0.72919C119.245 0.523856 119.394 0.421189 119.618 0.421189H120.57C120.794 0.421189 120.944 0.523856 121.018 0.72919L124.476 9.78719L124.504 9.94119C124.504 10.0159 124.476 10.0812 124.42 10.1372C124.364 10.1932 124.299 10.2212 124.224 10.2212H123.51C123.408 10.2212 123.328 10.1979 123.272 10.1512C123.216 10.0952 123.179 10.0392 123.16 9.98319L122.39 7.99519H117.798L117.028 9.98319C117.01 10.0392 116.968 10.0952 116.902 10.1512C116.846 10.1979 116.772 10.2212 116.678 10.2212H115.964ZM121.984 6.79119L120.094 1.82119L118.204 6.79119H121.984ZM126.155 10.2212C126.062 10.2212 125.983 10.1932 125.917 10.1372C125.861 10.0719 125.833 9.99252 125.833 9.89919V0.60319C125.833 0.509856 125.861 0.43519 125.917 0.37919C125.983 0.313856 126.062 0.28119 126.155 0.28119H126.813C126.907 0.28119 126.981 0.313856 127.037 0.37919C127.103 0.43519 127.135 0.509856 127.135 0.60319V9.89919C127.135 9.99252 127.103 10.0719 127.037 10.1372C126.981 10.1932 126.907 10.2212 126.813 10.2212H126.155ZM129.56 10.2212C129.466 10.2212 129.387 10.1932 129.322 10.1372C129.266 10.0719 129.238 9.99252 129.238 9.89919V0.60319C129.238 0.509856 129.266 0.43519 129.322 0.37919C129.387 0.313856 129.466 0.28119 129.56 0.28119H130.218C130.311 0.28119 130.386 0.313856 130.442 0.37919C130.507 0.43519 130.54 0.509856 130.54 0.60319V9.89919C130.54 9.99252 130.507 10.0719 130.442 10.1372C130.386 10.1932 130.311 10.2212 130.218 10.2212H129.56ZM136.381 10.2212C136.288 10.2212 136.209 10.1932 136.143 10.1372C136.087 10.0719 136.059 9.99252 136.059 9.89919V3.27719C136.059 3.18386 136.087 3.10452 136.143 3.03919C136.209 2.97386 136.288 2.94119 136.381 2.94119H137.025C137.119 2.94119 137.198 2.97386 137.263 3.03919C137.329 3.10452 137.361 3.18386 137.361 3.27719V3.89319C137.744 3.25852 138.397 2.94119 139.321 2.94119H139.867C139.961 2.94119 140.035 2.97386 140.091 3.03919C140.157 3.09519 140.189 3.16986 140.189 3.26319V3.83719C140.189 3.93052 140.157 4.00519 140.091 4.06119C140.035 4.11719 139.961 4.14519 139.867 4.14519H139.027C138.523 4.14519 138.127 4.29452 137.837 4.59319C137.548 4.88252 137.403 5.27919 137.403 5.78319V9.89919C137.403 9.99252 137.371 10.0719 137.305 10.1372C137.24 10.1932 137.161 10.2212 137.067 10.2212H136.381ZM141.588 1.58319C141.494 1.58319 141.415 1.55519 141.35 1.49919C141.294 1.43386 141.266 1.35452 141.266 1.26119V0.50519C141.266 0.411856 141.294 0.332523 141.35 0.26719C141.415 0.201856 141.494 0.169189 141.588 0.169189H142.47C142.563 0.169189 142.642 0.201856 142.708 0.26719C142.773 0.332523 142.806 0.411856 142.806 0.50519V1.26119C142.806 1.35452 142.773 1.43386 142.708 1.49919C142.642 1.55519 142.563 1.58319 142.47 1.58319H141.588ZM141.7 10.2212C141.606 10.2212 141.527 10.1932 141.462 10.1372C141.406 10.0719 141.378 9.99252 141.378 9.89919V3.26319C141.378 3.16986 141.406 3.09519 141.462 3.03919C141.527 2.97386 141.606 2.94119 141.7 2.94119H142.372C142.465 2.94119 142.54 2.97386 142.596 3.03919C142.661 3.09519 142.694 3.16986 142.694 3.26319V9.89919C142.694 9.99252 142.661 10.0719 142.596 10.1372C142.54 10.1932 142.465 10.2212 142.372 10.2212H141.7ZM147.75 13.3012C146.985 13.3012 146.369 13.1705 145.902 12.9092C145.436 12.6572 145.104 12.3679 144.908 12.0412C144.712 11.7145 144.605 11.4205 144.586 11.1592C144.577 11.0659 144.605 10.9865 144.67 10.9212C144.745 10.8559 144.824 10.8232 144.908 10.8232H145.58C145.664 10.8232 145.734 10.8419 145.79 10.8792C145.846 10.9259 145.893 11.0052 145.93 11.1172C146.042 11.4159 146.224 11.6725 146.476 11.8872C146.738 12.1112 147.139 12.2232 147.68 12.2232C148.371 12.2232 148.88 12.0739 149.206 11.7752C149.533 11.4859 149.696 10.9679 149.696 10.2212V9.26919C149.454 9.57719 149.146 9.82452 148.772 10.0112C148.399 10.1885 147.956 10.2772 147.442 10.2772C146.453 10.2772 145.711 9.96452 145.216 9.33919C144.731 8.70452 144.474 7.90186 144.446 6.93119L144.432 6.53919L144.446 6.16119C144.474 5.19986 144.736 4.40186 145.23 3.76719C145.725 3.12319 146.462 2.80119 147.442 2.80119C148.422 2.80119 149.188 3.16052 149.738 3.87919V3.27719C149.738 3.18386 149.766 3.10452 149.822 3.03919C149.888 2.97386 149.967 2.94119 150.06 2.94119H150.704C150.798 2.94119 150.877 2.97386 150.942 3.03919C151.008 3.10452 151.04 3.18386 151.04 3.27719V10.0672C151.04 12.2232 149.944 13.3012 147.75 13.3012ZM147.722 9.15719C148.357 9.15719 148.838 8.94719 149.164 8.52719C149.491 8.10719 149.668 7.60786 149.696 7.02919C149.706 6.94519 149.71 6.78186 149.71 6.53919C149.71 6.30586 149.706 6.14719 149.696 6.06319C149.668 5.48452 149.491 4.98519 149.164 4.56519C148.847 4.14519 148.366 3.93519 147.722 3.93519C147.06 3.93519 146.579 4.14052 146.28 4.55119C145.982 4.96186 145.818 5.50319 145.79 6.17519L145.776 6.53919L145.79 6.91719C145.818 7.57986 145.982 8.12119 146.28 8.54119C146.579 8.95186 147.06 9.15719 147.722 9.15719ZM153.458 10.2212C153.365 10.2212 153.285 10.1932 153.22 10.1372C153.164 10.0719 153.136 9.99252 153.136 9.89919V0.60319C153.136 0.509856 153.164 0.43519 153.22 0.37919C153.285 0.313856 153.365 0.28119 153.458 0.28119H154.158C154.251 0.28119 154.326 0.313856 154.382 0.37919C154.447 0.43519 154.48 0.509856 154.48 0.60319V3.86519C154.751 3.51986 155.068 3.25852 155.432 3.08119C155.796 2.89452 156.249 2.80119 156.79 2.80119C157.686 2.80119 158.381 3.09052 158.876 3.66919C159.38 4.23852 159.632 4.99919 159.632 5.95119V9.89919C159.632 9.99252 159.599 10.0719 159.534 10.1372C159.478 10.1932 159.403 10.2212 159.31 10.2212H158.61C158.517 10.2212 158.437 10.1932 158.372 10.1372C158.316 10.0719 158.288 9.99252 158.288 9.89919V6.02119C158.288 5.35852 158.125 4.84519 157.798 4.48119C157.481 4.11719 157.019 3.93519 156.412 3.93519C155.824 3.93519 155.353 4.12186 154.998 4.49519C154.653 4.85919 154.48 5.36786 154.48 6.02119V9.89919C154.48 9.99252 154.447 10.0719 154.382 10.1372C154.326 10.1932 154.251 10.2212 154.158 10.2212H153.458ZM164.4 10.2212C162.925 10.2212 162.187 9.39986 162.187 7.75719V4.06119H161.095C161.002 4.06119 160.923 4.03319 160.857 3.97719C160.801 3.91186 160.773 3.83252 160.773 3.73919V3.26319C160.773 3.16986 160.801 3.09519 160.857 3.03919C160.923 2.97386 161.002 2.94119 161.095 2.94119H162.187V0.60319C162.187 0.509856 162.215 0.43519 162.271 0.37919C162.337 0.313856 162.416 0.28119 162.509 0.28119H163.168C163.261 0.28119 163.336 0.313856 163.392 0.37919C163.457 0.43519 163.49 0.509856 163.49 0.60319V2.94119H165.226C165.319 2.94119 165.394 2.97386 165.45 3.03919C165.515 3.09519 165.548 3.16986 165.548 3.26319V3.73919C165.548 3.83252 165.515 3.91186 165.45 3.97719C165.394 4.03319 165.319 4.06119 165.226 4.06119H163.49V7.65919C163.49 8.12586 163.569 8.48052 163.728 8.72319C163.886 8.95652 164.148 9.07319 164.512 9.07319H165.366C165.459 9.07319 165.534 9.10586 165.59 9.17119C165.655 9.22719 165.688 9.30186 165.688 9.39519V9.89919C165.688 9.99252 165.655 10.0719 165.59 10.1372C165.534 10.1932 165.459 10.2212 165.366 10.2212H164.4ZM169.546 10.3612C168.893 10.3612 168.342 10.2585 167.894 10.0532C167.456 9.83852 167.124 9.59586 166.9 9.32519C166.686 9.05452 166.578 8.83052 166.578 8.65319C166.578 8.55986 166.611 8.48986 166.676 8.44319C166.751 8.38719 166.826 8.35919 166.9 8.35919H167.53C167.624 8.35919 167.708 8.40586 167.782 8.49919C168.006 8.76052 168.249 8.96586 168.51 9.11519C168.772 9.26452 169.122 9.33919 169.56 9.33919C170.046 9.33919 170.438 9.24586 170.736 9.05919C171.044 8.86319 171.198 8.59719 171.198 8.26119C171.198 8.03719 171.133 7.85519 171.002 7.71519C170.881 7.56586 170.666 7.43986 170.358 7.33719C170.06 7.22519 169.612 7.10386 169.014 6.97319C168.202 6.79586 167.624 6.53919 167.278 6.20319C166.942 5.86719 166.774 5.43319 166.774 4.90119C166.774 4.54652 166.877 4.21052 167.082 3.89319C167.297 3.56652 167.605 3.30519 168.006 3.10919C168.417 2.90386 168.907 2.80119 169.476 2.80119C170.074 2.80119 170.582 2.89919 171.002 3.09519C171.422 3.29119 171.735 3.52452 171.94 3.79519C172.155 4.05652 172.262 4.27586 172.262 4.45319C172.262 4.53719 172.23 4.60719 172.164 4.66319C172.108 4.71919 172.038 4.74719 171.954 4.74719H171.366C171.254 4.74719 171.161 4.70052 171.086 4.60719C170.937 4.42986 170.806 4.29452 170.694 4.20119C170.592 4.09852 170.438 4.00986 170.232 3.93519C170.036 3.86052 169.784 3.82319 169.476 3.82319C169.028 3.82319 168.683 3.92119 168.44 4.11719C168.198 4.30386 168.076 4.55119 168.076 4.85919C168.076 5.05519 168.128 5.22319 168.23 5.36319C168.333 5.49386 168.529 5.61519 168.818 5.72719C169.117 5.83919 169.546 5.95586 170.106 6.07719C170.993 6.26386 171.618 6.53452 171.982 6.88919C172.356 7.23452 172.542 7.67786 172.542 8.21919C172.542 8.62052 172.426 8.98452 172.192 9.31119C171.959 9.63786 171.614 9.89452 171.156 10.0812C170.708 10.2679 170.172 10.3612 169.546 10.3612ZM177.917 10.2212C177.823 10.2212 177.744 10.1932 177.679 10.1372C177.623 10.0719 177.595 9.99252 177.595 9.89919V3.27719C177.595 3.18386 177.623 3.10452 177.679 3.03919C177.744 2.97386 177.823 2.94119 177.917 2.94119H178.561C178.654 2.94119 178.733 2.97386 178.799 3.03919C178.864 3.10452 178.897 3.18386 178.897 3.27719V3.89319C179.279 3.25852 179.933 2.94119 180.857 2.94119H181.403C181.496 2.94119 181.571 2.97386 181.627 3.03919C181.692 3.09519 181.725 3.16986 181.725 3.26319V3.83719C181.725 3.93052 181.692 4.00519 181.627 4.06119C181.571 4.11719 181.496 4.14519 181.403 4.14519H180.563C180.059 4.14519 179.662 4.29452 179.373 4.59319C179.083 4.88252 178.939 5.27919 178.939 5.78319V9.89919C178.939 9.99252 178.906 10.0719 178.841 10.1372C178.775 10.1932 178.696 10.2212 178.603 10.2212H177.917ZM185.688 10.3612C184.727 10.3612 183.957 10.0672 183.378 9.47919C182.809 8.88186 182.496 8.06986 182.44 7.04319L182.426 6.56719L182.44 6.10519C182.506 5.09719 182.823 4.29452 183.392 3.69719C183.971 3.09986 184.732 2.80119 185.674 2.80119C186.71 2.80119 187.513 3.13252 188.082 3.79519C188.652 4.44852 188.936 5.33519 188.936 6.45519V6.69319C188.936 6.78652 188.904 6.86586 188.838 6.93119C188.782 6.98719 188.708 7.01519 188.614 7.01519H183.77V7.14119C183.798 7.74786 183.98 8.26586 184.316 8.69519C184.662 9.11519 185.114 9.32519 185.674 9.32519C186.104 9.32519 186.454 9.24119 186.724 9.07319C187.004 8.89586 187.21 8.71386 187.34 8.52719C187.424 8.41519 187.485 8.34986 187.522 8.33119C187.569 8.30319 187.648 8.28919 187.76 8.28919H188.446C188.53 8.28919 188.6 8.31252 188.656 8.35919C188.712 8.40586 188.74 8.47119 188.74 8.55519C188.74 8.76052 188.61 9.00786 188.348 9.29719C188.096 9.58652 187.737 9.83852 187.27 10.0532C186.813 10.2585 186.286 10.3612 185.688 10.3612ZM187.606 6.04919V6.00719C187.606 5.36319 187.429 4.84052 187.074 4.43919C186.729 4.02852 186.262 3.82319 185.674 3.82319C185.086 3.82319 184.62 4.02852 184.274 4.43919C183.938 4.84052 183.77 5.36319 183.77 6.00719V6.04919H187.606ZM193.13 10.3612C192.477 10.3612 191.926 10.2585 191.478 10.0532C191.04 9.83852 190.708 9.59586 190.484 9.32519C190.27 9.05452 190.162 8.83052 190.162 8.65319C190.162 8.55986 190.195 8.48986 190.26 8.44319C190.335 8.38719 190.41 8.35919 190.484 8.35919H191.114C191.208 8.35919 191.292 8.40586 191.366 8.49919C191.59 8.76052 191.833 8.96586 192.094 9.11519C192.356 9.26452 192.706 9.33919 193.144 9.33919C193.63 9.33919 194.022 9.24586 194.32 9.05919C194.628 8.86319 194.782 8.59719 194.782 8.26119C194.782 8.03719 194.717 7.85519 194.586 7.71519C194.465 7.56586 194.25 7.43986 193.942 7.33719C193.644 7.22519 193.196 7.10386 192.598 6.97319C191.786 6.79586 191.208 6.53919 190.862 6.20319C190.526 5.86719 190.358 5.43319 190.358 4.90119C190.358 4.54652 190.461 4.21052 190.666 3.89319C190.881 3.56652 191.189 3.30519 191.59 3.10919C192.001 2.90386 192.491 2.80119 193.06 2.80119C193.658 2.80119 194.166 2.89919 194.586 3.09519C195.006 3.29119 195.319 3.52452 195.524 3.79519C195.739 4.05652 195.846 4.27586 195.846 4.45319C195.846 4.53719 195.814 4.60719 195.748 4.66319C195.692 4.71919 195.622 4.74719 195.538 4.74719H194.95C194.838 4.74719 194.745 4.70052 194.67 4.60719C194.521 4.42986 194.39 4.29452 194.278 4.20119C194.176 4.09852 194.022 4.00986 193.816 3.93519C193.62 3.86052 193.368 3.82319 193.06 3.82319C192.612 3.82319 192.267 3.92119 192.024 4.11719C191.782 4.30386 191.66 4.55119 191.66 4.85919C191.66 5.05519 191.712 5.22319 191.814 5.36319C191.917 5.49386 192.113 5.61519 192.402 5.72719C192.701 5.83919 193.13 5.95586 193.69 6.07719C194.577 6.26386 195.202 6.53452 195.566 6.88919C195.94 7.23452 196.126 7.67786 196.126 8.21919C196.126 8.62052 196.01 8.98452 195.776 9.31119C195.543 9.63786 195.198 9.89452 194.74 10.0812C194.292 10.2679 193.756 10.3612 193.13 10.3612ZM200.659 10.3612C199.698 10.3612 198.928 10.0672 198.349 9.47919C197.78 8.88186 197.467 8.06986 197.411 7.04319L197.397 6.56719L197.411 6.10519C197.476 5.09719 197.794 4.29452 198.363 3.69719C198.942 3.09986 199.702 2.80119 200.645 2.80119C201.681 2.80119 202.484 3.13252 203.053 3.79519C203.622 4.44852 203.907 5.33519 203.907 6.45519V6.69319C203.907 6.78652 203.874 6.86586 203.809 6.93119C203.753 6.98719 203.678 7.01519 203.585 7.01519H198.741V7.14119C198.769 7.74786 198.951 8.26586 199.287 8.69519C199.632 9.11519 200.085 9.32519 200.645 9.32519C201.074 9.32519 201.424 9.24119 201.695 9.07319C201.975 8.89586 202.18 8.71386 202.311 8.52719C202.395 8.41519 202.456 8.34986 202.493 8.33119C202.54 8.30319 202.619 8.28919 202.731 8.28919H203.417C203.501 8.28919 203.571 8.31252 203.627 8.35919C203.683 8.40586 203.711 8.47119 203.711 8.55519C203.711 8.76052 203.58 9.00786 203.319 9.29719C203.067 9.58652 202.708 9.83852 202.241 10.0532C201.784 10.2585 201.256 10.3612 200.659 10.3612ZM202.577 6.04919V6.00719C202.577 5.36319 202.4 4.84052 202.045 4.43919C201.7 4.02852 201.233 3.82319 200.645 3.82319C200.057 3.82319 199.59 4.02852 199.245 4.43919C198.909 4.84052 198.741 5.36319 198.741 6.00719V6.04919H202.577ZM205.903 10.2212C205.81 10.2212 205.73 10.1932 205.665 10.1372C205.609 10.0719 205.581 9.99252 205.581 9.89919V3.27719C205.581 3.18386 205.609 3.10452 205.665 3.03919C205.73 2.97386 205.81 2.94119 205.903 2.94119H206.547C206.64 2.94119 206.72 2.97386 206.785 3.03919C206.85 3.10452 206.883 3.18386 206.883 3.27719V3.89319C207.266 3.25852 207.919 2.94119 208.843 2.94119H209.389C209.482 2.94119 209.557 2.97386 209.613 3.03919C209.678 3.09519 209.711 3.16986 209.711 3.26319V3.83719C209.711 3.93052 209.678 4.00519 209.613 4.06119C209.557 4.11719 209.482 4.14519 209.389 4.14519H208.549C208.045 4.14519 207.648 4.29452 207.359 4.59319C207.07 4.88252 206.925 5.27919 206.925 5.78319V9.89919C206.925 9.99252 206.892 10.0719 206.827 10.1372C206.762 10.1932 206.682 10.2212 206.589 10.2212H205.903ZM213.433 10.2212C213.191 10.2212 213.018 10.1045 212.915 9.87119L210.325 3.37519L210.297 3.23519C210.297 3.15119 210.325 3.08119 210.381 3.02519C210.437 2.96919 210.507 2.94119 210.591 2.94119H211.263C211.422 2.94119 211.539 3.02052 211.613 3.17919L213.741 8.69519L215.869 3.17919C215.953 3.02052 216.065 2.94119 216.205 2.94119H216.891C216.966 2.94119 217.031 2.96919 217.087 3.02519C217.153 3.08119 217.185 3.15119 217.185 3.23519L217.157 3.37519L214.553 9.87119C214.451 10.1045 214.278 10.2212 214.035 10.2212H213.433ZM221.303 10.3612C220.342 10.3612 219.572 10.0672 218.993 9.47919C218.424 8.88186 218.111 8.06986 218.055 7.04319L218.041 6.56719L218.055 6.10519C218.121 5.09719 218.438 4.29452 219.007 3.69719C219.586 3.09986 220.347 2.80119 221.29 2.80119C222.326 2.80119 223.128 3.13252 223.698 3.79519C224.267 4.44852 224.552 5.33519 224.552 6.45519V6.69319C224.552 6.78652 224.519 6.86586 224.454 6.93119C224.398 6.98719 224.323 7.01519 224.23 7.01519H219.385V7.14119C219.413 7.74786 219.595 8.26586 219.931 8.69519C220.277 9.11519 220.729 9.32519 221.29 9.32519C221.719 9.32519 222.069 9.24119 222.34 9.07319C222.62 8.89586 222.825 8.71386 222.956 8.52719C223.04 8.41519 223.1 8.34986 223.138 8.33119C223.184 8.30319 223.264 8.28919 223.376 8.28919H224.062C224.146 8.28919 224.216 8.31252 224.272 8.35919C224.328 8.40586 224.356 8.47119 224.356 8.55519C224.356 8.76052 224.225 9.00786 223.964 9.29719C223.712 9.58652 223.352 9.83852 222.886 10.0532C222.428 10.2585 221.901 10.3612 221.303 10.3612ZM223.222 6.04919V6.00719C223.222 5.36319 223.044 4.84052 222.69 4.43919C222.344 4.02852 221.878 3.82319 221.29 3.82319C220.701 3.82319 220.235 4.02852 219.889 4.43919C219.553 4.84052 219.385 5.36319 219.385 6.00719V6.04919H223.222ZM228.885 10.3612C227.915 10.3612 227.182 10.0439 226.687 9.40919C226.193 8.77452 225.931 7.97186 225.903 7.00119L225.889 6.58119L225.903 6.16119C225.931 5.19986 226.193 4.40186 226.687 3.76719C227.182 3.12319 227.915 2.80119 228.885 2.80119C229.847 2.80119 230.603 3.14186 231.153 3.82319V0.60319C231.153 0.509856 231.181 0.43519 231.237 0.37919C231.303 0.313856 231.382 0.28119 231.475 0.28119H232.147C232.241 0.28119 232.315 0.313856 232.371 0.37919C232.437 0.43519 232.469 0.509856 232.469 0.60319V9.89919C232.469 9.99252 232.437 10.0719 232.371 10.1372C232.315 10.1932 232.241 10.2212 232.147 10.2212H231.517C231.424 10.2212 231.345 10.1932 231.279 10.1372C231.223 10.0719 231.195 9.99252 231.195 9.89919V9.31119C230.654 10.0112 229.884 10.3612 228.885 10.3612ZM229.179 9.22719C229.823 9.22719 230.304 9.01719 230.621 8.59719C230.948 8.16786 231.125 7.65919 231.153 7.07119C231.163 6.96852 231.167 6.79119 231.167 6.53919C231.167 6.27786 231.163 6.09586 231.153 5.99319C231.135 5.44252 230.957 4.96186 230.621 4.55119C230.285 4.14052 229.805 3.93519 229.179 3.93519C228.517 3.93519 228.031 4.14052 227.723 4.55119C227.425 4.96186 227.261 5.50319 227.233 6.17519L227.219 6.58119C227.219 8.34519 227.873 9.22719 229.179 9.22719ZM234.776 10.2212C234.682 10.2212 234.603 10.1932 234.538 10.1372C234.482 10.0719 234.454 9.99252 234.454 9.89919V8.89119C234.454 8.79786 234.482 8.72319 234.538 8.66719C234.603 8.60186 234.682 8.56919 234.776 8.56919H235.784C235.877 8.56919 235.956 8.60186 236.022 8.66719C236.087 8.72319 236.12 8.79786 236.12 8.89119V9.89919C236.12 9.99252 236.087 10.0719 236.022 10.1372C235.956 10.1932 235.877 10.2212 235.784 10.2212H234.776Z" fill="#555555"/>
</svg>
